<svg width="212" height="66" viewBox="0 0 212 66" fill="none" xmlns="http://www.w3.org/2000/svg">
<path d="M13 0H0V20L13 5.5V0Z" fill="#444444"/>
<path d="M0 47.5V34L32 0H45.5V1L27.5 20.5V22L47 47.5H32.5L18 30L13.5 35V47.5H0Z" fill="#444444"/>
<path d="M52 47.5V0H64.5V47.5H52Z" fill="#444444"/>
<path d="M99 47.5H86V10.5H70.5V0H113.5V10.5H99V47.5Z" fill="#4174BA"/>
<path d="M156 0H119V10H156V0Z" fill="#4174BA"/>
<path d="M156 18.5H119V28H156V18.5Z" fill="#4174BA"/>
<path d="M156 37.5H119V47H156V37.5Z" fill="#4174BA"/>
<path d="M165 47V34.5L197 0H210V1L192 20.5V22L211.5 47H197L183 30L178 35V47H165Z" fill="#4174BA"/>
<path d="M165 20V0H178V5.5L165 20Z" fill="#4174BA"/>
<path d="M123.284 63.12C122.932 63.12 122.616 63.104 122.336 63.072C122.064 63.04 121.764 62.98 121.436 62.892C121.068 62.796 120.764 62.672 120.524 62.52C120.284 62.36 120.084 62.14 119.924 61.86C119.756 61.58 119.672 61.248 119.672 60.864V57.444C119.672 55.876 120.876 55.092 123.284 55.092C123.9 55.092 124.724 55.18 125.756 55.356V56.76C124.828 56.536 124.012 56.424 123.308 56.424C123.012 56.424 122.78 56.432 122.612 56.448C122.452 56.464 122.284 56.504 122.108 56.568C121.732 56.696 121.544 56.98 121.544 57.42V60.732C121.544 61.436 122.188 61.788 123.476 61.788C124.028 61.788 124.804 61.672 125.804 61.44V62.856C124.948 63.032 124.108 63.12 123.284 63.12ZM130.516 63.12C130.084 63.12 129.684 63.092 129.316 63.036C128.956 62.98 128.58 62.884 128.188 62.748C127.764 62.604 127.432 62.372 127.192 62.052C126.952 61.724 126.832 61.328 126.832 60.864V57.456C126.832 57.072 126.916 56.728 127.084 56.424C127.26 56.12 127.484 55.88 127.756 55.704C127.996 55.552 128.292 55.424 128.644 55.32C128.996 55.216 129.324 55.152 129.628 55.128C129.908 55.104 130.204 55.092 130.516 55.092C130.884 55.092 131.204 55.108 131.476 55.14C131.748 55.164 132.052 55.22 132.388 55.308C132.772 55.42 133.088 55.556 133.336 55.716C133.584 55.876 133.792 56.1 133.96 56.388C134.136 56.684 134.224 57.04 134.224 57.456V60.864C134.224 61.296 134.108 61.668 133.876 61.98C133.652 62.292 133.34 62.528 132.94 62.688C132.22 62.976 131.412 63.12 130.516 63.12ZM130.54 61.788C130.804 61.788 131.024 61.78 131.2 61.764C131.384 61.74 131.572 61.7 131.764 61.644C131.956 61.588 132.1 61.496 132.196 61.368C132.3 61.232 132.352 61.064 132.352 60.864V57.444C132.352 57.076 132.204 56.816 131.908 56.664C131.612 56.504 131.152 56.424 130.528 56.424C129.904 56.424 129.444 56.5 129.148 56.652C128.852 56.804 128.704 57.068 128.704 57.444V60.864C128.704 61.064 128.756 61.232 128.86 61.368C128.964 61.496 129.116 61.588 129.316 61.644C129.508 61.7 129.692 61.74 129.868 61.764C130.052 61.78 130.276 61.788 130.54 61.788ZM135.731 55.212H137.627L141.395 60.528V55.212H143.063V63H141.167L137.399 57.6V63H135.731V55.212ZM147.262 63.12C146.518 63.12 145.598 63.048 144.502 62.904V61.476C145.862 61.684 146.79 61.788 147.286 61.788C148.326 61.788 148.846 61.52 148.846 60.984V60.48C148.846 60.224 148.77 60.028 148.618 59.892C148.474 59.756 148.21 59.688 147.826 59.688H146.914C145.202 59.688 144.346 59.008 144.346 57.648V57.072C144.346 56.392 144.63 55.892 145.198 55.572C145.766 55.252 146.666 55.092 147.898 55.092C148.538 55.092 149.35 55.144 150.334 55.248V56.64C149.126 56.496 148.294 56.424 147.838 56.424C147.206 56.424 146.782 56.476 146.566 56.58C146.334 56.692 146.218 56.868 146.218 57.108V57.66C146.218 58.068 146.562 58.272 147.25 58.272H148.186C149.074 58.272 149.718 58.436 150.118 58.764C150.518 59.092 150.718 59.592 150.718 60.264V60.78C150.718 61.708 150.386 62.336 149.722 62.664C149.402 62.832 149.046 62.948 148.654 63.012C148.27 63.084 147.806 63.12 147.262 63.12ZM153.82 56.544H151.42V55.212H158.08V56.544H155.692V63H153.82V56.544ZM159.156 55.212H162.66C163.7 55.212 164.452 55.34 164.916 55.596C165.38 55.844 165.612 56.264 165.612 56.856V58.224C165.612 58.68 165.448 59.04 165.12 59.304C164.8 59.56 164.372 59.724 163.836 59.796L166.092 63H163.932L161.892 59.94H161.028V63H159.156V55.212ZM162.636 58.704C163.076 58.704 163.376 58.648 163.536 58.536C163.696 58.416 163.776 58.188 163.776 57.852V57.3C163.776 57.012 163.688 56.816 163.512 56.712C163.344 56.6 163.052 56.544 162.636 56.544H161.028V58.704H162.636ZM170.52 63.12C168.272 63.12 167.148 62.368 167.148 60.864V55.212H169.02V60.864C169.02 61.216 169.132 61.46 169.356 61.596C169.588 61.724 169.984 61.788 170.544 61.788C171.096 61.788 171.48 61.724 171.696 61.596C171.92 61.46 172.032 61.216 172.032 60.864V55.212H173.904V60.864C173.904 62.368 172.776 63.12 170.52 63.12ZM179.007 63.12C178.655 63.12 178.339 63.104 178.059 63.072C177.787 63.04 177.487 62.98 177.159 62.892C176.791 62.796 176.487 62.672 176.247 62.52C176.007 62.36 175.807 62.14 175.647 61.86C175.479 61.58 175.395 61.248 175.395 60.864V57.444C175.395 55.876 176.599 55.092 179.007 55.092C179.623 55.092 180.447 55.18 181.479 55.356V56.76C180.551 56.536 179.735 56.424 179.031 56.424C178.735 56.424 178.503 56.432 178.335 56.448C178.175 56.464 178.007 56.504 177.831 56.568C177.455 56.696 177.267 56.98 177.267 57.42V60.732C177.267 61.436 177.911 61.788 179.199 61.788C179.751 61.788 180.527 61.672 181.527 61.44V62.856C180.671 63.032 179.831 63.12 179.007 63.12ZM184.523 56.544H182.123V55.212H188.783V56.544H186.395V63H184.523V56.544ZM189.86 55.212H191.732V63H189.86V55.212ZM196.926 63.12C196.494 63.12 196.094 63.092 195.726 63.036C195.366 62.98 194.99 62.884 194.598 62.748C194.174 62.604 193.842 62.372 193.602 62.052C193.362 61.724 193.242 61.328 193.242 60.864V57.456C193.242 57.072 193.326 56.728 193.494 56.424C193.67 56.12 193.894 55.88 194.166 55.704C194.406 55.552 194.702 55.424 195.054 55.32C195.406 55.216 195.734 55.152 196.038 55.128C196.318 55.104 196.614 55.092 196.926 55.092C197.294 55.092 197.614 55.108 197.886 55.14C198.158 55.164 198.462 55.22 198.798 55.308C199.182 55.42 199.498 55.556 199.746 55.716C199.994 55.876 200.202 56.1 200.37 56.388C200.546 56.684 200.634 57.04 200.634 57.456V60.864C200.634 61.296 200.518 61.668 200.286 61.98C200.062 62.292 199.75 62.528 199.35 62.688C198.63 62.976 197.822 63.12 196.926 63.12ZM196.95 61.788C197.214 61.788 197.434 61.78 197.61 61.764C197.794 61.74 197.982 61.7 198.174 61.644C198.366 61.588 198.51 61.496 198.606 61.368C198.71 61.232 198.762 61.064 198.762 60.864V57.444C198.762 57.076 198.614 56.816 198.318 56.664C198.022 56.504 197.562 56.424 196.938 56.424C196.314 56.424 195.854 56.5 195.558 56.652C195.262 56.804 195.114 57.068 195.114 57.444V60.864C195.114 61.064 195.166 61.232 195.27 61.368C195.374 61.496 195.526 61.588 195.726 61.644C195.918 61.7 196.102 61.74 196.278 61.764C196.462 61.78 196.686 61.788 196.95 61.788ZM202.141 55.212H204.037L207.805 60.528V55.212H209.473V63H207.577L203.809 57.6V63H202.141V55.212Z" fill="#4174BA"/>
</svg>
